solid OpenSCAD_Model
  facet normal 0 0 -1
    outer loop
      vertex 164.85 2.35 -2.4
      vertex 164.5 2.7 -2.4
      vertex 164.85 112.85 -2.4
    endloop
  endfacet
  facet normal 0 0 -1
    outer loop
      vertex 164.85 2.35 -2.4
      vertex 2.7 2.7 -2.4
      vertex 164.5 2.7 -2.4
    endloop
  endfacet
  facet normal -0 0 -1
    outer loop
      vertex 2.7 2.7 -2.4
      vertex 2.35 2.35 -2.4
      vertex 2.7 112.5 -2.4
    endloop
  endfacet
  facet normal 0 0 -1
    outer loop
      vertex 2.35 2.35 -2.4
      vertex 2.7 2.7 -2.4
      vertex 164.85 2.35 -2.4
    endloop
  endfacet
  facet normal 0 0 -1
    outer loop
      vertex 164.5 112.5 -2.4
      vertex 164.85 112.85 -2.4
      vertex 164.5 2.7 -2.4
    endloop
  endfacet
  facet normal 0 0 -1
    outer loop
      vertex 2.7 112.5 -2.4
      vertex 164.85 112.85 -2.4
      vertex 164.5 112.5 -2.4
    endloop
  endfacet
  facet normal 0 0 -1
    outer loop
      vertex 2.7 112.5 -2.4
      vertex 2.35 112.85 -2.4
      vertex 164.85 112.85 -2.4
    endloop
  endfacet
  facet normal 0 0 -1
    outer loop
      vertex 2.35 112.85 -2.4
      vertex 2.7 112.5 -2.4
      vertex 2.35 2.35 -2.4
    endloop
  endfacet
  facet normal 0 0 -1
    outer loop
      vertex 162.1 5.09999 -2.4
      vertex 5.1 5.1 -2.4
      vertex 162.1 5.1 -2.4
    endloop
  endfacet
  facet normal 0 0 -1
    outer loop
      vertex 5.09999 5.09999 -2.4
      vertex 5.1 5.1 -2.4
      vertex 162.1 5.09999 -2.4
    endloop
  endfacet
  facet normal 0 0 -1
    outer loop
      vertex 5.09999 110.1 -2.4
      vertex 5.1 5.1 -2.4
      vertex 5.09999 5.09999 -2.4
    endloop
  endfacet
  facet normal 0 0 -1
    outer loop
      vertex 5.1 5.1 -2.4
      vertex 5.09999 110.1 -2.4
      vertex 5.1 110.1 -2.4
    endloop
  endfacet
  facet normal 1 -0 0
    outer loop
      vertex 164.85 2.35 -1.2
      vertex 164.85 112.85 -2.4
      vertex 164.85 112.85 -1.2
    endloop
  endfacet
  facet normal 1 0 0
    outer loop
      vertex 164.85 112.85 -2.4
      vertex 164.85 2.35 -1.2
      vertex 164.85 2.35 -2.4
    endloop
  endfacet
  facet normal -1 0 0
    outer loop
      vertex 2.35 2.35 -2.4
      vertex 2.35 112.85 -1.2
      vertex 2.35 112.85 -2.4
    endloop
  endfacet
  facet normal -1 -0 0
    outer loop
      vertex 2.35 112.85 -1.2
      vertex 2.35 2.35 -2.4
      vertex 2.35 2.35 -1.2
    endloop
  endfacet
  facet normal 0 -1 0
    outer loop
      vertex 2.35 2.35 -2.4
      vertex 164.85 2.35 -1.2
      vertex 2.35 2.35 -1.2
    endloop
  endfacet
  facet normal 0 -1 -0
    outer loop
      vertex 164.85 2.35 -1.2
      vertex 2.35 2.35 -2.4
      vertex 164.85 2.35 -2.4
    endloop
  endfacet
  facet normal 0 1 -0
    outer loop
      vertex 164.85 112.85 -2.4
      vertex 2.35 112.85 -1.2
      vertex 164.85 112.85 -1.2
    endloop
  endfacet
  facet normal 0 1 0
    outer loop
      vertex 2.35 112.85 -1.2
      vertex 164.85 112.85 -2.4
      vertex 2.35 112.85 -2.4
    endloop
  endfacet
  facet normal 0 0 1
    outer loop
      vertex 164.85 112.85 -1.2
      vertex 164.5 112.5 -1.2
      vertex 164.85 2.35 -1.2
    endloop
  endfacet
  facet normal 0 0 1
    outer loop
      vertex 164.85 112.85 -1.2
      vertex 2.7 112.5 -1.2
      vertex 164.5 112.5 -1.2
    endloop
  endfacet
  facet normal 0 0 1
    outer loop
      vertex 2.7 112.5 -1.2
      vertex 2.35 112.85 -1.2
      vertex 2.7 2.7 -1.2
    endloop
  endfacet
  facet normal -0 0 1
    outer loop
      vertex 2.35 112.85 -1.2
      vertex 2.7 112.5 -1.2
      vertex 164.85 112.85 -1.2
    endloop
  endfacet
  facet normal -0 0 1
    outer loop
      vertex 164.5 2.7 -1.2
      vertex 164.85 2.35 -1.2
      vertex 164.5 112.5 -1.2
    endloop
  endfacet
  facet normal -0 0 1
    outer loop
      vertex 2.7 2.7 -1.2
      vertex 164.85 2.35 -1.2
      vertex 164.5 2.7 -1.2
    endloop
  endfacet
  facet normal 0 0 1
    outer loop
      vertex 2.7 2.7 -1.2
      vertex 2.35 2.35 -1.2
      vertex 164.85 2.35 -1.2
    endloop
  endfacet
  facet normal 0 0 1
    outer loop
      vertex 2.35 2.35 -1.2
      vertex 2.7 2.7 -1.2
      vertex 2.35 112.85 -1.2
    endloop
  endfacet
  facet normal 0 0 1
    outer loop
      vertex 5.1 110.1 -1.2
      vertex 5.09999 110.1 -1.2
      vertex 5.1 5.1 -1.2
    endloop
  endfacet
  facet normal -0 0 1
    outer loop
      vertex 5.1 5.1 -1.2
      vertex 162.1 5.09999 -1.2
      vertex 162.1 5.1 -1.2
    endloop
  endfacet
  facet normal 0 0 1
    outer loop
      vertex 5.1 5.1 -1.2
      vertex 5.09999 5.09999 -1.2
      vertex 162.1 5.09999 -1.2
    endloop
  endfacet
  facet normal 0 0 1
    outer loop
      vertex 5.09999 5.09999 -1.2
      vertex 5.1 5.1 -1.2
      vertex 5.09999 110.1 -1.2
    endloop
  endfacet
  facet normal 1 -0 0
    outer loop
      vertex 5.1 5.1 -1.2
      vertex 5.1 110.1 -2.4
      vertex 5.1 110.1 -1.2
    endloop
  endfacet
  facet normal 1 0 0
    outer loop
      vertex 5.1 110.1 -2.4
      vertex 5.1 5.1 -1.2
      vertex 5.1 5.1 -2.4
    endloop
  endfacet
  facet normal 0 1 -0
    outer loop
      vertex 162.1 5.1 -2.4
      vertex 5.1 5.1 -1.2
      vertex 162.1 5.1 -1.2
    endloop
  endfacet
  facet normal 0 1 0
    outer loop
      vertex 5.1 5.1 -1.2
      vertex 162.1 5.1 -2.4
      vertex 5.1 5.1 -2.4
    endloop
  endfacet
  facet normal 0 0 -1
    outer loop
      vertex 167.2 0 0
      vertex 164.5 2.7 0
      vertex 167.2 115.2 0
    endloop
  endfacet
  facet normal 0 0 -1
    outer loop
      vertex 167.2 0 0
      vertex 2.7 2.7 0
      vertex 164.5 2.7 0
    endloop
  endfacet
  facet normal -0 0 -1
    outer loop
      vertex 2.7 2.7 0
      vertex 0 0 0
      vertex 2.7 112.5 0
    endloop
  endfacet
  facet normal 0 0 -1
    outer loop
      vertex 0 0 0
      vertex 2.7 2.7 0
      vertex 167.2 0 0
    endloop
  endfacet
  facet normal 0 0 -1
    outer loop
      vertex 164.5 112.5 0
      vertex 167.2 115.2 0
      vertex 164.5 2.7 0
    endloop
  endfacet
  facet normal 0 0 -1
    outer loop
      vertex 2.7 112.5 0
      vertex 167.2 115.2 0
      vertex 164.5 112.5 0
    endloop
  endfacet
  facet normal 0 0 -1
    outer loop
      vertex 2.7 112.5 0
      vertex 0 115.2 0
      vertex 167.2 115.2 0
    endloop
  endfacet
  facet normal 0 0 -1
    outer loop
      vertex 0 115.2 0
      vertex 2.7 112.5 0
      vertex 0 0 0
    endloop
  endfacet
  facet normal 0 0 -1
    outer loop
      vertex 162.1 5.09999 0
      vertex 59.1 16.1 0
      vertex 162.1 110.1 0
    endloop
  endfacet
  facet normal 0 0 -1
    outer loop
      vertex 5.09999 5.09999 0
      vertex 59.1 16.1 0
      vertex 162.1 5.09999 0
    endloop
  endfacet
  facet normal -0 0 -1
    outer loop
      vertex 8.1 16.1 0
      vertex 5.09999 5.09999 0
      vertex 8.1 99.1 0
    endloop
  endfacet
  facet normal -0 0 -1
    outer loop
      vertex 59.1 16.1 0
      vertex 5.09999 5.09999 0
      vertex 8.1 16.1 0
    endloop
  endfacet
  facet normal 0 0 -1
    outer loop
      vertex 59.1 99.1 0
      vertex 162.1 110.1 0
      vertex 59.1 16.1 0
    endloop
  endfacet
  facet normal 0 0 -1
    outer loop
      vertex 5.09999 110.1 0
      vertex 59.1 99.1 0
      vertex 8.1 99.1 0
    endloop
  endfacet
  facet normal 0 0 -1
    outer loop
      vertex 59.1 99.1 0
      vertex 5.09999 110.1 0
      vertex 162.1 110.1 0
    endloop
  endfacet
  facet normal 0 0 -1
    outer loop
      vertex 5.09999 110.1 0
      vertex 8.1 99.1 0
      vertex 5.09999 5.09999 0
    endloop
  endfacet
  facet normal 1 -0 0
    outer loop
      vertex 167.2 0 6
      vertex 167.2 115.2 0
      vertex 167.2 115.2 6
    endloop
  endfacet
  facet normal 1 0 0
    outer loop
      vertex 167.2 115.2 0
      vertex 167.2 0 6
      vertex 167.2 0 0
    endloop
  endfacet
  facet normal -1 0 0
    outer loop
      vertex 0 0 0
      vertex 0 115.2 6
      vertex 0 115.2 0
    endloop
  endfacet
  facet normal -1 -0 0
    outer loop
      vertex 0 115.2 6
      vertex 0 0 0
      vertex 0 0 6
    endloop
  endfacet
  facet normal 0 -1 0
    outer loop
      vertex 0 0 0
      vertex 167.2 0 6
      vertex 0 0 6
    endloop
  endfacet
  facet normal 0 -1 -0
    outer loop
      vertex 167.2 0 6
      vertex 0 0 0
      vertex 167.2 0 0
    endloop
  endfacet
  facet normal 0 1 -0
    outer loop
      vertex 167.2 115.2 0
      vertex 0 115.2 6
      vertex 167.2 115.2 6
    endloop
  endfacet
  facet normal 0 1 0
    outer loop
      vertex 0 115.2 6
      vertex 167.2 115.2 0
      vertex 0 115.2 0
    endloop
  endfacet
  facet normal 0 0 1
    outer loop
      vertex 167.2 115.2 6
      vertex 58.85 92.85 6
      vertex 167.2 0 6
    endloop
  endfacet
  facet normal -0 0 1
    outer loop
      vertex 0 115.2 6
      vertex 58.85 92.85 6
      vertex 167.2 115.2 6
    endloop
  endfacet
  facet normal 0 0 1
    outer loop
      vertex 8.35 92.85 6
      vertex 0 115.2 6
      vertex 8.35 22.35 6
    endloop
  endfacet
  facet normal 0 0 1
    outer loop
      vertex 58.85 92.85 6
      vertex 0 115.2 6
      vertex 8.35 92.85 6
    endloop
  endfacet
  facet normal -0 0 1
    outer loop
      vertex 58.85 22.35 6
      vertex 167.2 0 6
      vertex 58.85 92.85 6
    endloop
  endfacet
  facet normal 0 0 1
    outer loop
      vertex 0 0 6
      vertex 58.85 22.35 6
      vertex 8.35 22.35 6
    endloop
  endfacet
  facet normal 0 0 1
    outer loop
      vertex 58.85 22.35 6
      vertex 0 0 6
      vertex 167.2 0 6
    endloop
  endfacet
  facet normal 0 0 1
    outer loop
      vertex 0 0 6
      vertex 8.35 22.35 6
      vertex 0 115.2 6
    endloop
  endfacet
  facet normal 0 0 -1
    outer loop
      vertex 164.5 2.7 -3
      vertex 162.1 5.09999 -3
      vertex 164.5 112.5 -3
    endloop
  endfacet
  facet normal 0 0 -1
    outer loop
      vertex 164.5 2.7 -3
      vertex 5.09999 5.09999 -3
      vertex 162.1 5.09999 -3
    endloop
  endfacet
  facet normal -0 0 -1
    outer loop
      vertex 5.09999 5.09999 -3
      vertex 2.7 2.7 -3
      vertex 5.09999 110.1 -3
    endloop
  endfacet
  facet normal 0 0 -1
    outer loop
      vertex 2.7 2.7 -3
      vertex 5.09999 5.09999 -3
      vertex 164.5 2.7 -3
    endloop
  endfacet
  facet normal 0 0 -1
    outer loop
      vertex 162.1 110.1 -3
      vertex 164.5 112.5 -3
      vertex 162.1 5.09999 -3
    endloop
  endfacet
  facet normal 0 0 -1
    outer loop
      vertex 5.09999 110.1 -3
      vertex 164.5 112.5 -3
      vertex 162.1 110.1 -3
    endloop
  endfacet
  facet normal 0 0 -1
    outer loop
      vertex 5.09999 110.1 -3
      vertex 2.7 112.5 -3
      vertex 164.5 112.5 -3
    endloop
  endfacet
  facet normal 0 0 -1
    outer loop
      vertex 2.7 112.5 -3
      vertex 5.09999 110.1 -3
      vertex 2.7 2.7 -3
    endloop
  endfacet
  facet normal 0 1 -0
    outer loop
      vertex 164.5 112.5 -3
      vertex 2.7 112.5 -2.4
      vertex 164.5 112.5 -2.4
    endloop
  endfacet
  facet normal 0 1 0
    outer loop
      vertex 2.7 112.5 -2.4
      vertex 164.5 112.5 -3
      vertex 2.7 112.5 -3
    endloop
  endfacet
  facet normal 0 1 -0
    outer loop
      vertex 164.5 112.5 -1.2
      vertex 2.7 112.5 0
      vertex 164.5 112.5 0
    endloop
  endfacet
  facet normal 0 1 0
    outer loop
      vertex 2.7 112.5 0
      vertex 164.5 112.5 -1.2
      vertex 2.7 112.5 -1.2
    endloop
  endfacet
  facet normal -1 0 0
    outer loop
      vertex 2.7 2.7 -3
      vertex 2.7 112.5 -2.4
      vertex 2.7 112.5 -3
    endloop
  endfacet
  facet normal -1 -0 0
    outer loop
      vertex 2.7 112.5 -2.4
      vertex 2.7 2.7 -3
      vertex 2.7 2.7 -2.4
    endloop
  endfacet
  facet normal -1 0 0
    outer loop
      vertex 2.7 2.7 -1.2
      vertex 2.7 112.5 0
      vertex 2.7 112.5 -1.2
    endloop
  endfacet
  facet normal -1 -0 0
    outer loop
      vertex 2.7 112.5 0
      vertex 2.7 2.7 -1.2
      vertex 2.7 2.7 0
    endloop
  endfacet
  facet normal 0 -1 0
    outer loop
      vertex 2.7 2.7 -3
      vertex 164.5 2.7 -2.4
      vertex 2.7 2.7 -2.4
    endloop
  endfacet
  facet normal 0 -1 -0
    outer loop
      vertex 164.5 2.7 -2.4
      vertex 2.7 2.7 -3
      vertex 164.5 2.7 -3
    endloop
  endfacet
  facet normal 0 -1 0
    outer loop
      vertex 2.7 2.7 -1.2
      vertex 164.5 2.7 0
      vertex 2.7 2.7 0
    endloop
  endfacet
  facet normal 0 -1 -0
    outer loop
      vertex 164.5 2.7 0
      vertex 2.7 2.7 -1.2
      vertex 164.5 2.7 -1.2
    endloop
  endfacet
  facet normal 1 -0 0
    outer loop
      vertex 164.5 2.7 -2.4
      vertex 164.5 112.5 -3
      vertex 164.5 112.5 -2.4
    endloop
  endfacet
  facet normal 1 0 0
    outer loop
      vertex 164.5 112.5 -3
      vertex 164.5 2.7 -2.4
      vertex 164.5 2.7 -3
    endloop
  endfacet
  facet normal 1 -0 0
    outer loop
      vertex 164.5 2.7 0
      vertex 164.5 112.5 -1.2
      vertex 164.5 112.5 0
    endloop
  endfacet
  facet normal 1 0 0
    outer loop
      vertex 164.5 112.5 -1.2
      vertex 164.5 2.7 0
      vertex 164.5 2.7 -1.2
    endloop
  endfacet
  facet normal 1 -0 0
    outer loop
      vertex 5.09999 5.09999 -2.4
      vertex 5.09999 110.1 -3
      vertex 5.09999 110.1 -2.4
    endloop
  endfacet
  facet normal 1 0 0
    outer loop
      vertex 5.09999 110.1 -3
      vertex 5.09999 5.09999 -2.4
      vertex 5.09999 5.09999 -3
    endloop
  endfacet
  facet normal 1 -0 0
    outer loop
      vertex 5.09999 5.09999 0
      vertex 5.09999 110.1 -1.2
      vertex 5.09999 110.1 0
    endloop
  endfacet
  facet normal 1 0 0
    outer loop
      vertex 5.09999 110.1 -1.2
      vertex 5.09999 5.09999 0
      vertex 5.09999 5.09999 -1.2
    endloop
  endfacet
  facet normal 0 -1 0
    outer loop
      vertex 5.09999 110.1 -2.4
      vertex 5.09999 110.1 -3
      vertex 5.1 110.1 -2.4
    endloop
  endfacet
  facet normal 0 -1 0
    outer loop
      vertex 5.1 110.1 -1.2
      vertex 5.09999 110.1 0
      vertex 5.09999 110.1 -1.2
    endloop
  endfacet
  facet normal 0 -1 0
    outer loop
      vertex 5.09999 110.1 0
      vertex 5.1 110.1 -1.2
      vertex 162.1 110.1 0
    endloop
  endfacet
  facet normal 0 -1 0
    outer loop
      vertex 5.1 110.1 -2.4
      vertex 162.1 110.1 0
      vertex 5.1 110.1 -1.2
    endloop
  endfacet
  facet normal 0 -1 0
    outer loop
      vertex 162.1 110.1 -3
      vertex 5.1 110.1 -2.4
      vertex 5.09999 110.1 -3
    endloop
  endfacet
  facet normal 0 -1 0
    outer loop
      vertex 5.1 110.1 -2.4
      vertex 162.1 110.1 -3
      vertex 162.1 110.1 0
    endloop
  endfacet
  facet normal -1 0 0
    outer loop
      vertex 162.1 110.1 -3
      vertex 162.1 5.1 -2.4
      vertex 162.1 110.1 0
    endloop
  endfacet
  facet normal -1 0 0
    outer loop
      vertex 162.1 5.09999 -3
      vertex 162.1 5.1 -2.4
      vertex 162.1 110.1 -3
    endloop
  endfacet
  facet normal -1 -0 0
    outer loop
      vertex 162.1 5.1 -2.4
      vertex 162.1 5.09999 -3
      vertex 162.1 5.09999 -2.4
    endloop
  endfacet
  facet normal -1 0 0
    outer loop
      vertex 162.1 5.1 -1.2
      vertex 162.1 110.1 0
      vertex 162.1 5.1 -2.4
    endloop
  endfacet
  facet normal -1 0 0
    outer loop
      vertex 162.1 5.09999 0
      vertex 162.1 5.1 -1.2
      vertex 162.1 5.09999 -1.2
    endloop
  endfacet
  facet normal -1 0 0
    outer loop
      vertex 162.1 5.1 -1.2
      vertex 162.1 5.09999 0
      vertex 162.1 110.1 0
    endloop
  endfacet
  facet normal 0 1 -0
    outer loop
      vertex 162.1 5.09999 -3
      vertex 5.09999 5.09999 -2.4
      vertex 162.1 5.09999 -2.4
    endloop
  endfacet
  facet normal 0 1 0
    outer loop
      vertex 5.09999 5.09999 -2.4
      vertex 162.1 5.09999 -3
      vertex 5.09999 5.09999 -3
    endloop
  endfacet
  facet normal 0 1 -0
    outer loop
      vertex 162.1 5.09999 -1.2
      vertex 5.09999 5.09999 0
      vertex 162.1 5.09999 0
    endloop
  endfacet
  facet normal 0 1 0
    outer loop
      vertex 5.09999 5.09999 0
      vertex 162.1 5.09999 -1.2
      vertex 5.09999 5.09999 -1.2
    endloop
  endfacet
  facet normal 1 -0 0
    outer loop
      vertex 8.35 22.35 6
      vertex 8.35 92.85 1.999
      vertex 8.35 92.85 6
    endloop
  endfacet
  facet normal 1 0 0
    outer loop
      vertex 8.35 92.85 1.999
      vertex 8.35 22.35 6
      vertex 8.35 22.35 1.999
    endloop
  endfacet
  facet normal -1 0 0
    outer loop
      vertex 58.85 22.35 1.999
      vertex 58.85 92.85 6
      vertex 58.85 92.85 1.999
    endloop
  endfacet
  facet normal -1 -0 0
    outer loop
      vertex 58.85 92.85 6
      vertex 58.85 22.35 1.999
      vertex 58.85 22.35 6
    endloop
  endfacet
  facet normal 0 -1 0
    outer loop
      vertex 8.35 92.85 1.999
      vertex 58.85 92.85 6
      vertex 8.35 92.85 6
    endloop
  endfacet
  facet normal 0 -1 -0
    outer loop
      vertex 58.85 92.85 6
      vertex 8.35 92.85 1.999
      vertex 58.85 92.85 1.999
    endloop
  endfacet
  facet normal 0 1 -0
    outer loop
      vertex 58.85 22.35 1.999
      vertex 8.35 22.35 6
      vertex 58.85 22.35 6
    endloop
  endfacet
  facet normal 0 1 0
    outer loop
      vertex 8.35 22.35 6
      vertex 58.85 22.35 1.999
      vertex 8.35 22.35 1.999
    endloop
  endfacet
  facet normal 1 -0 0
    outer loop
      vertex 8.1 16.1 1.999
      vertex 8.1 99.1 0
      vertex 8.1 99.1 1.999
    endloop
  endfacet
  facet normal 1 0 0
    outer loop
      vertex 8.1 99.1 0
      vertex 8.1 16.1 1.999
      vertex 8.1 16.1 0
    endloop
  endfacet
  facet normal 0 0 -1
    outer loop
      vertex 59.1 16.1 1.999
      vertex 58.85 22.35 1.999
      vertex 59.1 99.1 1.999
    endloop
  endfacet
  facet normal 0 0 -1
    outer loop
      vertex 59.1 16.1 1.999
      vertex 8.35 22.35 1.999
      vertex 58.85 22.35 1.999
    endloop
  endfacet
  facet normal -0 0 -1
    outer loop
      vertex 8.35 22.35 1.999
      vertex 8.1 16.1 1.999
      vertex 8.35 92.85 1.999
    endloop
  endfacet
  facet normal 0 0 -1
    outer loop
      vertex 8.1 16.1 1.999
      vertex 8.35 22.35 1.999
      vertex 59.1 16.1 1.999
    endloop
  endfacet
  facet normal 0 0 -1
    outer loop
      vertex 58.85 92.85 1.999
      vertex 59.1 99.1 1.999
      vertex 58.85 22.35 1.999
    endloop
  endfacet
  facet normal 0 0 -1
    outer loop
      vertex 8.35 92.85 1.999
      vertex 59.1 99.1 1.999
      vertex 58.85 92.85 1.999
    endloop
  endfacet
  facet normal 0 0 -1
    outer loop
      vertex 8.35 92.85 1.999
      vertex 8.1 99.1 1.999
      vertex 59.1 99.1 1.999
    endloop
  endfacet
  facet normal 0 0 -1
    outer loop
      vertex 8.1 99.1 1.999
      vertex 8.35 92.85 1.999
      vertex 8.1 16.1 1.999
    endloop
  endfacet
  facet normal -1 0 0
    outer loop
      vertex 59.1 16.1 0
      vertex 59.1 99.1 1.999
      vertex 59.1 99.1 0
    endloop
  endfacet
  facet normal -1 -0 0
    outer loop
      vertex 59.1 99.1 1.999
      vertex 59.1 16.1 0
      vertex 59.1 16.1 1.999
    endloop
  endfacet
  facet normal 0 -1 0
    outer loop
      vertex 8.1 99.1 0
      vertex 59.1 99.1 1.999
      vertex 8.1 99.1 1.999
    endloop
  endfacet
  facet normal 0 -1 -0
    outer loop
      vertex 59.1 99.1 1.999
      vertex 8.1 99.1 0
      vertex 59.1 99.1 0
    endloop
  endfacet
  facet normal 0 1 -0
    outer loop
      vertex 59.1 16.1 0
      vertex 8.1 16.1 1.999
      vertex 59.1 16.1 1.999
    endloop
  endfacet
  facet normal 0 1 0
    outer loop
      vertex 8.1 16.1 1.999
      vertex 59.1 16.1 0
      vertex 8.1 16.1 0
    endloop
  endfacet
endsolid OpenSCAD_Model
